<svg width="24" height="24" viewBox="0 0 24 24" fill="none" xmlns="http://www.w3.org/2000/svg">
<path fill-rule="evenodd" clip-rule="evenodd" d="M14.7238 0.053789L1.44406 1.03466C0.372716 1.1273 0 1.82737 0 2.6664V17.2246C0 17.8781 0.232077 18.4373 0.791991 19.1847L3.91363 23.2437C4.42651 23.8973 4.89282 24.0374 5.87201 23.9909L21.2935 23.0573C22.5974 22.9644 22.9711 22.3572 22.9711 21.331V4.95285C22.9711 4.42246 22.7616 4.26958 22.1448 3.81694L17.7999 0.753621C16.7744 0.00794955 16.3551 -0.0863693 14.7238 0.053549V0.053789ZM6.22073 4.68477C4.96146 4.76949 4.67586 4.78869 3.96067 4.20718L2.14245 2.76096C1.95766 2.57376 2.05054 2.34024 2.51613 2.29368L15.2823 1.36081C16.3544 1.26721 16.9126 1.64089 17.3319 1.96729L19.5214 3.55367C19.615 3.60095 19.8478 3.88006 19.5677 3.88006L6.38392 4.67373L6.22073 4.68477ZM4.75266 21.1911V7.2873C4.75266 6.68011 4.93914 6.40003 5.49737 6.35299L20.6398 5.46644C21.1533 5.42012 21.3854 5.74652 21.3854 6.35275V20.1639C21.3854 20.7711 21.2918 21.2847 20.4535 21.331L5.96321 22.171C5.1249 22.2173 4.7529 21.9382 4.7529 21.1911H4.75266Z" fill="#E6E6E6"/>
</svg>
